# xmcd
#
# Track frame offsets:
#	150
#	17894
#	31646
#	45767
#	61050
#
# Disc length: 1022 seconds
#
# Revision: 1
# Processed by: cddbd v1.5.2PL0 Copyright (c) Steve Scherf et al.
# Submitted via: audiograbber 1.83.01
#
DISCID=2a03fc05
DTITLE=Miu - Complicated Issues
DYEAR=2014
DGENRE=Pop
TTITLE0=Livin' it up
TTITLE1=Mr. Married
TTITLE2=Mirror
TTITLE3=In Could Be You And Me
TTITLE4=What Do You Think You Are
EXTD=
EXTT0=
EXTT1=
EXTT2=
EXTT3=
EXTT4=
PLAYORDER=
